<?xml version="1.0" encoding="UTF-8" standalone="no"?>
<!-- Created with Inkscape (http://www.inkscape.org/) -->

<svg
   xmlns:osb="http://www.openswatchbook.org/uri/2009/osb"
   xmlns:dc="http://purl.org/dc/elements/1.1/"
   xmlns:cc="http://creativecommons.org/ns#"
   xmlns:rdf="http://www.w3.org/1999/02/22-rdf-syntax-ns#"
   xmlns:svg="http://www.w3.org/2000/svg"
   xmlns="http://www.w3.org/2000/svg"
   xmlns:xlink="http://www.w3.org/1999/xlink"
   xmlns:sodipodi="http://sodipodi.sourceforge.net/DTD/sodipodi-0.dtd"
   xmlns:inkscape="http://www.inkscape.org/namespaces/inkscape"
   width="48px"
   height="48px"
   id="svg2985"
   version="1.1"
   inkscape:version="0.92.2 (5c3e80d, 2017-08-06)"
   sodipodi:docname="icon1.svg"
   enable-background="new"
   inkscape:export-filename="/home/michael/Pictures/icon1.svg.png"
   inkscape:export-xdpi="200"
   inkscape:export-ydpi="200">
  <defs
     id="defs2987">
    <linearGradient
       id="linearGradient6979"
       osb:paint="solid">
      <stop
         style="stop-color:#ffffff;stop-opacity:1;"
         offset="0"
         id="stop6977" />
    </linearGradient>
    <inkscape:perspective
       sodipodi:type="inkscape:persp3d"
       inkscape:vp_x="-110.25053 : 88.044232 : 1"
       inkscape:vp_y="0 : 2704.4658 : 0"
       inkscape:vp_z="159.17374 : 94.998578 : 1"
       inkscape:persp3d-origin="168.52856 : -235.24104 : 1"
       id="perspective2993" />
    <clipPath
       clipPathUnits="userSpaceOnUse"
       id="clipPath5530-1">
      <g
         style="fill:#ffffff;fill-opacity:1;fill-rule:evenodd;stroke:#212121;stroke-width:1.5;stroke-miterlimit:4;stroke-dasharray:none;stroke-opacity:1"
         id="use5532-2"
         inkscape:label="Clip">
        <text
           xml:space="preserve"
           style="font-style:normal;font-variant:normal;font-weight:bold;font-stretch:normal;line-height:0%;font-family:Arial;-inkscape-font-specification:'Arial, Bold';letter-spacing:0px;word-spacing:0px;opacity:1;fill:#ffffff;fill-opacity:1;fill-rule:evenodd;stroke:#212121;stroke-width:1.21706879;stroke-miterlimit:4;stroke-dasharray:none;stroke-opacity:1;filter:url(#filter5496-7)"
           x="23.999998"
           y="40.857143"
           id="text7348"
           transform="matrix(1.2025051,0,0,1.2631803,-6.6439082,-7.3072171)"><tspan
             sodipodi:role="line"
             id="tspan7346"
             x="23.999998"
             y="40.857143"
             style="font-style:normal;font-variant:normal;font-weight:bold;font-stretch:normal;font-size:28.00000191px;line-height:125%;font-family:Arial;-inkscape-font-specification:'Arial, Bold';text-align:start;writing-mode:lr-tb;text-anchor:start;fill:#ffffff;fill-opacity:1;fill-rule:evenodd;stroke:#212121;stroke-width:1.21706879;stroke-miterlimit:4;stroke-dasharray:none;stroke-opacity:1">C</tspan></text>
      </g>
    </clipPath>
    <filter
       inkscape:collect="always"
       style="color-interpolation-filters:sRGB"
       id="filter5496-7">
      <feBlend
         inkscape:collect="always"
         mode="overlay"
         in2="BackgroundImage"
         id="feBlend5498-0" />
    </filter>
  </defs>
  <sodipodi:namedview
     id="base"
     pagecolor="#212121"
     bordercolor="#666666"
     borderopacity="1.0"
     inkscape:pageopacity="0"
     inkscape:pageshadow="2"
     inkscape:zoom="11.025611"
     inkscape:cx="8.6201835"
     inkscape:cy="29.392948"
     inkscape:current-layer="layer2"
     showgrid="true"
     inkscape:grid-bbox="true"
     inkscape:document-units="px"
     inkscape:window-width="1869"
     inkscape:window-height="1025"
     inkscape:window-x="51"
     inkscape:window-y="27"
     inkscape:window-maximized="1"
     inkscape:pagecheckerboard="true"
     inkscape:snap-text-baseline="true" />
  <metadata
     id="metadata2990">
    <rdf:RDF>
      <cc:Work
         rdf:about="">
        <dc:format>image/svg+xml</dc:format>
        <dc:type
           rdf:resource="http://purl.org/dc/dcmitype/StillImage" />
        <dc:title />
      </cc:Work>
    </rdf:RDF>
  </metadata>
  <g
     id="layer1"
     inkscape:label="Layer 1"
     inkscape:groupmode="layer">
    <g
       sodipodi:type="inkscape:box3d"
       style="fill:#000000;stroke:#ffffff;stroke-width:1.09000003;stroke-miterlimit:3.9;stroke-dasharray:none;stroke-opacity:1;fill-opacity:0;fill-rule:nonzero;paint-order:markers fill stroke;stroke-linejoin:round"
       id="g3023"
       inkscape:perspectiveID="#perspective2993"
       inkscape:corner0="1.4285005 : 0.075449793 : 0 : 1"
       inkscape:corner7="1.1495314 : 0.058980817 : 0.25 : 1">
      <path
         sodipodi:type="inkscape:box3dside"
         id="path3033"
         style="fill:#000000;fill-rule:nonzero;stroke:#ffffff;stroke-width:1.09000003;stroke-miterlimit:3.9;stroke-dasharray:none;stroke-opacity:1;fill-opacity:0;paint-order:markers fill stroke;stroke-linejoin:round"
         inkscape:box3dsidetype="13"
         d="M 4.5442127,27.393954 19.44243,36.146174 34.000617,27.483571 18.976684,20.450468 Z"
         points="19.44243,36.146174 34.000617,27.483571 18.976684,20.450468 4.5442127,27.393954 " />
      <path
         sodipodi:type="inkscape:box3dside"
         id="path3025"
         style="fill:#000000;fill-rule:nonzero;stroke:#ffffff;stroke-width:1.09000003;stroke-miterlimit:3.9;stroke-dasharray:none;stroke-opacity:1;fill-opacity:0;paint-order:markers fill stroke;stroke-linejoin:round"
         inkscape:box3dsidetype="6"
         d="M 4.5442127,9.0535084 V 27.393954 L 18.976684,20.450468 V 3.8218418 Z"
         points="4.5442127,27.393954 18.976684,20.450468 18.976684,3.8218418 4.5442127,9.0535084 " />
      <path
         sodipodi:type="inkscape:box3dside"
         id="path3035"
         style="fill:#000000;fill-rule:nonzero;stroke:#ffffff;stroke-width:1.09000003;stroke-miterlimit:3.9;stroke-dasharray:none;stroke-opacity:1;fill-opacity:0;paint-order:markers fill stroke;stroke-linejoin:round"
         inkscape:box3dsidetype="11"
         d="M 18.976684,3.8218418 34.000617,8.9217039 V 27.483571 L 18.976684,20.450468 Z"
         points="34.000617,8.9217039 34.000617,27.483571 18.976684,20.450468 18.976684,3.8218418 " />
      <path
         sodipodi:type="inkscape:box3dside"
         id="path3027"
         style="fill:#000000;fill-rule:nonzero;stroke:#ffffff;stroke-width:1.09000003;stroke-miterlimit:3.9;stroke-dasharray:none;stroke-opacity:1;fill-opacity:0;paint-order:markers fill stroke;stroke-linejoin:round"
         inkscape:box3dsidetype="5"
         d="M 4.5442127,9.0535084 19.44243,15.42548 34.000617,8.9217039 18.976684,3.8218418 Z"
         points="19.44243,15.42548 34.000617,8.9217039 18.976684,3.8218418 4.5442127,9.0535084 " />
      <path
         sodipodi:type="inkscape:box3dside"
         id="path3031"
         style="fill:#000000;fill-rule:nonzero;stroke:#ffffff;stroke-width:1.09000003;stroke-miterlimit:3.9;stroke-dasharray:none;stroke-opacity:1;fill-opacity:0;paint-order:markers fill stroke;stroke-linejoin:round"
         inkscape:box3dsidetype="14"
         d="M 19.44243,15.42548 V 36.146174 L 34.000617,27.483571 V 8.9217039 Z"
         points="19.44243,36.146174 34.000617,27.483571 34.000617,8.9217039 19.44243,15.42548 " />
      <path
         sodipodi:type="inkscape:box3dside"
         id="path3029"
         style="fill:#000000;fill-rule:nonzero;stroke:#ffffff;stroke-width:1.09000003;stroke-miterlimit:3.9;stroke-dasharray:none;stroke-opacity:1;fill-opacity:0;paint-order:markers fill stroke;stroke-linejoin:round"
         inkscape:box3dsidetype="3"
         d="M 4.5442127,9.0535084 19.44243,15.42548 V 36.146174 L 4.5442127,27.393954 Z"
         points="19.44243,15.42548 19.44243,36.146174 4.5442127,27.393954 4.5442127,9.0535084 " />
    </g>
  </g>
  <g
     inkscape:groupmode="layer"
     id="layer2"
     inkscape:label="Layer 2">
    <path
       sodipodi:type="inkscape:offset"
       inkscape:radius="0"
       inkscape:original="M 34.248047 19.675781 C 32.409992 19.675781 30.810318 19.94944 29.447266 20.498047 C 28.09454 21.035896 26.973987 21.811109 26.085938 22.822266 C 25.197888 23.822666 24.531915 25.038071 24.087891 26.46875 C 23.654192 27.899429 23.4375 29.502441 23.4375 31.277344 C 23.4375 32.987705 23.654192 34.56247 24.087891 36.003906 C 24.531915 37.445343 25.203187 38.693862 26.101562 39.748047 C 27.010264 40.791475 28.155358 41.609538 29.539062 42.201172 C 30.922767 42.782049 32.559533 43.072266 34.449219 43.072266 C 35.89488 43.072266 37.149297 42.889175 38.212891 42.523438 C 39.286811 42.146943 40.211867 41.657079 40.986328 41.054688 C 41.76079 40.452296 42.405567 39.757916 42.921875 38.972656 C 43.438183 38.187396 43.857624 37.38589 44.177734 36.568359 L 40.195312 35.003906 C 39.999116 35.530999 39.747285 36.052024 39.4375 36.568359 C 39.138042 37.084695 38.755693 37.548266 38.291016 37.957031 C 37.836665 38.365797 37.293958 38.698864 36.664062 38.957031 C 36.044493 39.204442 35.306289 39.328125 34.449219 39.328125 C 33.313342 39.328125 32.33725 39.128477 31.521484 38.730469 C 30.716044 38.33246 30.05537 37.778321 29.539062 37.068359 C 29.022755 36.358398 28.640406 35.514042 28.392578 34.535156 C 28.155077 33.545513 28.037109 32.460612 28.037109 31.277344 C 28.037109 30.083318 28.155077 29.0062 28.392578 28.048828 C 28.640406 27.080699 29.017456 26.2529 29.523438 25.564453 C 30.039745 24.876006 30.695121 24.348159 31.490234 23.982422 C 32.285348 23.605927 33.236899 23.417969 34.341797 23.417969 C 35.126585 23.417969 35.827696 23.527048 36.447266 23.742188 C 37.066835 23.94657 37.604243 24.22023 38.058594 24.564453 C 38.523271 24.908677 38.90562 25.306019 39.205078 25.757812 C 39.504537 26.198849 39.726528 26.66242 39.871094 27.146484 L 43.898438 26 C 43.609305 25.074899 43.205761 24.230543 42.689453 23.466797 C 42.183472 22.692294 41.538694 22.02616 40.753906 21.466797 C 39.979445 20.896677 39.054389 20.454531 37.980469 20.142578 C 36.916875 19.830625 35.673056 19.675781 34.248047 19.675781 z "
       xlink:href="#text867"
       style="font-style:normal;font-variant:normal;font-weight:bold;font-stretch:normal;font-size:33.91184616px;line-height:1.25;font-family:'Arial';-inkscape-font-specification:'Arial, Bold';font-variant-ligatures:normal;font-variant-caps:normal;font-variant-numeric:normal;font-feature-settings:normal;text-align:start;letter-spacing:0px;word-spacing:0px;writing-mode:lr-tb;text-anchor:start;fill:#000000;fill-opacity:1;stroke:none;stroke-width:0.84778315"
       id="path869"
       inkscape:href="#text867"
       d="m 34.271484,19.162109 c -1.931887,0 -3.614239,0.286752 -5.046875,0.859375 -1.421782,0.561396 -2.599819,1.370359 -3.533203,2.425782 -0.933383,1.044195 -1.632917,2.313329 -2.099609,3.80664 -0.455839,1.493312 -0.683594,3.164974 -0.683594,5.017578 0,1.785237 0.227755,3.431008 0.683594,4.935547 0.466692,1.504539 1.170997,2.805916 2.115234,3.90625 0.955091,1.089107 2.160893,1.943012 3.615235,2.560547 1.454342,0.606307 3.174002,0.910156 5.160156,0.910156 1.519462,0 2.837188,-0.190517 3.955078,-0.572265 1.128743,-0.392977 2.100065,-0.904441 2.914062,-1.533203 0.813998,-0.628763 1.492492,-1.352238 2.035157,-2.171875 0.542665,-0.819637 0.98386,-1.656445 1.320312,-2.509766 l -4.185547,-1.634766 c -0.206212,0.550168 -0.471276,1.095827 -0.796875,1.634766 -0.314745,0.538939 -0.716679,1.020605 -1.205078,1.447266 -0.477545,0.42666 -1.046933,0.775452 -1.708984,1.044921 -0.651198,0.258242 -1.427301,0.386719 -2.328125,0.386719 -1.193863,0 -2.218761,-0.207614 -3.076172,-0.623047 -0.846557,-0.415432 -1.541319,-0.993333 -2.083984,-1.734375 -0.542665,-0.741041 -0.944599,-1.622792 -1.205078,-2.644531 -0.249626,-1.032967 -0.375,-2.167274 -0.375,-3.402344 -10e-7,-1.246297 0.125374,-2.367904 0.375,-3.367187 0.260479,-1.010512 0.655688,-1.875164 1.1875,-2.59375 0.542664,-0.718586 1.232655,-1.268642 2.068359,-1.650391 0.835704,-0.392976 1.834791,-0.589844 2.996094,-0.589844 0.82485,0 1.561692,0.11138 2.21289,0.335938 0.651198,0.21333 1.215814,0.500082 1.69336,0.859375 0.488398,0.359293 0.890332,0.774522 1.205078,1.246094 0.314745,0.460344 0.547272,0.943963 0.699219,1.449219 l 4.234374,-1.195313 c -0.303892,-0.9656 -0.728819,-1.84735 -1.271484,-2.644531 -0.531812,-0.808409 -1.210305,-1.50404 -2.035156,-2.087891 C 40.293424,20.438124 39.322102,19.976 38.193359,19.650391 37.07547,19.324781 35.76924,19.162109 34.271484,19.162109 Z" />
    <path
       sodipodi:type="inkscape:offset"
       inkscape:radius="4.3262733e-07"
       inkscape:original="M 34.248047 19.675781 C 32.409992 19.675781 30.810318 19.94944 29.447266 20.498047 C 28.09454 21.035896 26.973987 21.811109 26.085938 22.822266 C 25.197888 23.822666 24.531915 25.038071 24.087891 26.46875 C 23.654192 27.899429 23.4375 29.502441 23.4375 31.277344 C 23.4375 32.987705 23.654192 34.56247 24.087891 36.003906 C 24.531915 37.445343 25.203187 38.693862 26.101562 39.748047 C 27.010264 40.791475 28.155358 41.609538 29.539062 42.201172 C 30.922767 42.782049 32.559533 43.072266 34.449219 43.072266 C 35.89488 43.072266 37.149297 42.889175 38.212891 42.523438 C 39.286811 42.146943 40.211867 41.657079 40.986328 41.054688 C 41.76079 40.452296 42.405567 39.757916 42.921875 38.972656 C 43.438183 38.187396 43.857624 37.38589 44.177734 36.568359 L 40.195312 35.003906 C 39.999116 35.530999 39.747285 36.052024 39.4375 36.568359 C 39.138042 37.084695 38.755693 37.548266 38.291016 37.957031 C 37.836665 38.365797 37.293958 38.698864 36.664062 38.957031 C 36.044493 39.204442 35.306289 39.328125 34.449219 39.328125 C 33.313342 39.328125 32.33725 39.128477 31.521484 38.730469 C 30.716044 38.33246 30.05537 37.778321 29.539062 37.068359 C 29.022755 36.358398 28.640406 35.514042 28.392578 34.535156 C 28.155077 33.545513 28.037109 32.460612 28.037109 31.277344 C 28.037109 30.083318 28.155077 29.0062 28.392578 28.048828 C 28.640406 27.080699 29.017456 26.2529 29.523438 25.564453 C 30.039745 24.876006 30.695121 24.348159 31.490234 23.982422 C 32.285348 23.605927 33.236899 23.417969 34.341797 23.417969 C 35.126585 23.417969 35.827696 23.527048 36.447266 23.742188 C 37.066835 23.94657 37.604243 24.22023 38.058594 24.564453 C 38.523271 24.908677 38.90562 25.306019 39.205078 25.757812 C 39.504537 26.198849 39.726528 26.66242 39.871094 27.146484 L 43.898438 26 C 43.609305 25.074899 43.205761 24.230543 42.689453 23.466797 C 42.183472 22.692294 41.538694 22.02616 40.753906 21.466797 C 39.979445 20.896677 39.054389 20.454531 37.980469 20.142578 C 36.916875 19.830625 35.673056 19.675781 34.248047 19.675781 z "
       xlink:href="#text867"
       style="font-style:normal;font-variant:normal;font-weight:bold;font-stretch:normal;font-size:33.91184616px;line-height:1.25;font-family:'Arial';-inkscape-font-specification:'Arial, Bold';font-variant-ligatures:normal;font-variant-caps:normal;font-variant-numeric:normal;font-feature-settings:normal;text-align:start;letter-spacing:0px;word-spacing:0px;writing-mode:lr-tb;text-anchor:start;fill:#000000;fill-opacity:1;stroke:none;stroke-width:0.84778315"
       id="path871"
       inkscape:href="#text867"
       d="m 34.271484,19.162109 c -1.931887,0 -3.614239,0.286752 -5.046875,0.859375 -1.421782,0.561396 -2.599819,1.370359 -3.533203,2.425782 -0.933383,1.044195 -1.632917,2.313329 -2.099609,3.80664 -0.455839,1.493312 -0.683594,3.164974 -0.683594,5.017578 0,1.785237 0.227755,3.431008 0.683594,4.935547 0.466692,1.504539 1.170997,2.805916 2.115234,3.90625 0.955091,1.089107 2.160893,1.943012 3.615235,2.560547 1.454342,0.606307 3.174002,0.910156 5.160156,0.910156 1.519462,0 2.837188,-0.190517 3.955078,-0.572265 1.128743,-0.392977 2.100065,-0.904441 2.914062,-1.533203 0.813998,-0.628763 1.492492,-1.352238 2.035157,-2.171875 0.542665,-0.819637 0.98386,-1.656445 1.320312,-2.509766 l -4.185547,-1.634766 c -0.206212,0.550168 -0.471276,1.095827 -0.796875,1.634766 -0.314745,0.538939 -0.716679,1.020605 -1.205078,1.447266 -0.477545,0.42666 -1.046933,0.775452 -1.708984,1.044921 -0.651198,0.258242 -1.427301,0.386719 -2.328125,0.386719 -1.193863,0 -2.218761,-0.207614 -3.076172,-0.623047 -0.846557,-0.415432 -1.541319,-0.993333 -2.083984,-1.734375 -0.542665,-0.741041 -0.944599,-1.622792 -1.205078,-2.644531 -0.249626,-1.032967 -0.375,-2.167274 -0.375,-3.402344 -10e-7,-1.246297 0.125374,-2.367904 0.375,-3.367187 0.260479,-1.010512 0.655688,-1.875164 1.1875,-2.59375 0.542664,-0.718586 1.232655,-1.268642 2.068359,-1.650391 0.835704,-0.392976 1.834791,-0.589844 2.996094,-0.589844 0.82485,0 1.561692,0.11138 2.21289,0.335938 0.651198,0.21333 1.215814,0.500082 1.69336,0.859375 0.488398,0.359293 0.890332,0.774522 1.205078,1.246094 0.314745,0.460344 0.547272,0.943963 0.699219,1.449219 l 4.234374,-1.195313 c -0.303892,-0.9656 -0.728819,-1.84735 -1.271484,-2.644531 -0.531812,-0.808409 -1.210305,-1.50404 -2.035156,-2.087891 C 40.293424,20.438124 39.322102,19.976 38.193359,19.650391 37.07547,19.324781 35.76924,19.162109 34.271484,19.162109 Z" />
    <text
       xml:space="preserve"
       style="font-style:normal;font-variant:normal;font-weight:bold;font-stretch:normal;font-size:32.37694168px;line-height:1.25;font-family:'Arial';-inkscape-font-specification:'Arial, Bold';font-variant-ligatures:normal;font-variant-caps:normal;font-variant-numeric:normal;font-feature-settings:normal;text-align:start;letter-spacing:0px;word-spacing:0px;writing-mode:lr-tb;text-anchor:start;fill:#ffffff;fill-opacity:1;stroke:#212100;stroke-width:1.00899998;stroke-opacity:1;stroke-miterlimit:4;stroke-dasharray:none;opacity:1;"
       x="22.592665"
       y="41.883984"
       id="text867"
       transform="scale(0.97976956,1.0206482)"><tspan
         sodipodi:role="line"
         id="tspan865"
         x="22.592665"
         y="41.883984"
         style="font-style:normal;font-variant:normal;font-weight:bold;font-stretch:normal;font-size:32.37694168px;font-family:'Arial';-inkscape-font-specification:'Arial, Bold';font-variant-ligatures:normal;font-variant-caps:normal;font-variant-numeric:normal;font-feature-settings:normal;text-align:start;writing-mode:lr-tb;text-anchor:start;fill:#ffffff;fill-opacity:1;stroke:#212100;stroke-width:1.00899998;stroke-opacity:1;stroke-miterlimit:4;stroke-dasharray:none;">C</tspan></text>
  </g>
</svg>
